<mxfile host="www.draw.io" modified="2023-04-07T03:34:41.820Z" agent="Mozilla/5.0 (Windows NT 10.0; Win64; x64) AppleWebKit/537.36 (KHTML, like Gecko) Chrome/111.0.0.0 Safari/537.36" etag="qLAfdWEyMUy6e0HqGfcW" version="21.1.5" type="device">
  <diagram id="C5RBs43oDa-KdzZeNtuy" name="Page-1">
    <mxGraphModel dx="1434" dy="796" grid="1" gridSize="10" guides="1" tooltips="1" connect="1" arrows="1" fold="1" page="1" pageScale="1" pageWidth="827" pageHeight="1169" math="0" shadow="0">
      <root>
        <mxCell id="WIyWlLk6GJQsqaUBKTNV-0" />
        <mxCell id="WIyWlLk6GJQsqaUBKTNV-1" parent="WIyWlLk6GJQsqaUBKTNV-0" />
        <mxCell id="Wk2DvFmFJSsPk0pXOhr4-11" style="edgeStyle=orthogonalEdgeStyle;rounded=0;orthogonalLoop=1;jettySize=auto;html=1;entryX=0.478;entryY=0;entryDx=0;entryDy=0;entryPerimeter=0;exitX=0.5;exitY=1;exitDx=0;exitDy=0;" edge="1" parent="WIyWlLk6GJQsqaUBKTNV-1" source="Wk2DvFmFJSsPk0pXOhr4-14" target="Wk2DvFmFJSsPk0pXOhr4-5">
          <mxGeometry relative="1" as="geometry">
            <mxPoint x="340" y="340" as="sourcePoint" />
          </mxGeometry>
        </mxCell>
        <mxCell id="Wk2DvFmFJSsPk0pXOhr4-12" style="edgeStyle=orthogonalEdgeStyle;rounded=0;orthogonalLoop=1;jettySize=auto;html=1;" edge="1" parent="WIyWlLk6GJQsqaUBKTNV-1" source="Wk2DvFmFJSsPk0pXOhr4-5" target="Wk2DvFmFJSsPk0pXOhr4-6">
          <mxGeometry relative="1" as="geometry" />
        </mxCell>
        <mxCell id="Wk2DvFmFJSsPk0pXOhr4-5" value="resultado = num1 + num2" style="rounded=1;whiteSpace=wrap;html=1;absoluteArcSize=1;arcSize=14;strokeWidth=2;" vertex="1" parent="WIyWlLk6GJQsqaUBKTNV-1">
          <mxGeometry x="205" y="370" width="270" height="70" as="geometry" />
        </mxCell>
        <mxCell id="Wk2DvFmFJSsPk0pXOhr4-19" style="edgeStyle=orthogonalEdgeStyle;rounded=0;orthogonalLoop=1;jettySize=auto;html=1;entryX=0.5;entryY=0;entryDx=0;entryDy=0;entryPerimeter=0;" edge="1" parent="WIyWlLk6GJQsqaUBKTNV-1" source="Wk2DvFmFJSsPk0pXOhr4-6" target="Wk2DvFmFJSsPk0pXOhr4-8">
          <mxGeometry relative="1" as="geometry" />
        </mxCell>
        <mxCell id="Wk2DvFmFJSsPk0pXOhr4-6" value="&quot;El resultado de la suma es: &quot; . resultado" style="strokeWidth=2;html=1;shape=mxgraph.flowchart.document2;whiteSpace=wrap;size=0.25;" vertex="1" parent="WIyWlLk6GJQsqaUBKTNV-1">
          <mxGeometry x="220" y="480" width="260" height="90" as="geometry" />
        </mxCell>
        <mxCell id="Wk2DvFmFJSsPk0pXOhr4-18" style="edgeStyle=orthogonalEdgeStyle;rounded=0;orthogonalLoop=1;jettySize=auto;html=1;entryX=0.556;entryY=0.033;entryDx=0;entryDy=0;entryPerimeter=0;" edge="1" parent="WIyWlLk6GJQsqaUBKTNV-1" source="Wk2DvFmFJSsPk0pXOhr4-7" target="Wk2DvFmFJSsPk0pXOhr4-13">
          <mxGeometry relative="1" as="geometry" />
        </mxCell>
        <mxCell id="Wk2DvFmFJSsPk0pXOhr4-7" value="" style="strokeWidth=2;html=1;shape=mxgraph.flowchart.start_2;whiteSpace=wrap;fillColor=#a20025;fontColor=#ffffff;strokeColor=#6F0000;" vertex="1" parent="WIyWlLk6GJQsqaUBKTNV-1">
          <mxGeometry x="330" y="50" width="70" height="60" as="geometry" />
        </mxCell>
        <mxCell id="Wk2DvFmFJSsPk0pXOhr4-8" value="" style="strokeWidth=2;html=1;shape=mxgraph.flowchart.start_2;whiteSpace=wrap;fillColor=#a20025;fontColor=#ffffff;strokeColor=#6F0000;" vertex="1" parent="WIyWlLk6GJQsqaUBKTNV-1">
          <mxGeometry x="305" y="620" width="70" height="70" as="geometry" />
        </mxCell>
        <mxCell id="Wk2DvFmFJSsPk0pXOhr4-17" style="edgeStyle=orthogonalEdgeStyle;rounded=0;orthogonalLoop=1;jettySize=auto;html=1;" edge="1" parent="WIyWlLk6GJQsqaUBKTNV-1" source="Wk2DvFmFJSsPk0pXOhr4-13" target="Wk2DvFmFJSsPk0pXOhr4-14">
          <mxGeometry relative="1" as="geometry" />
        </mxCell>
        <mxCell id="Wk2DvFmFJSsPk0pXOhr4-13" value="&quot;Ingresar el primer valor:&quot;. num1" style="shape=parallelogram;html=1;strokeWidth=2;perimeter=parallelogramPerimeter;whiteSpace=wrap;rounded=1;arcSize=12;size=0.23;" vertex="1" parent="WIyWlLk6GJQsqaUBKTNV-1">
          <mxGeometry x="215" y="170" width="250" height="60" as="geometry" />
        </mxCell>
        <mxCell id="Wk2DvFmFJSsPk0pXOhr4-14" value="&quot;Ingresar el segundo valor:&quot;. num2" style="shape=parallelogram;html=1;strokeWidth=2;perimeter=parallelogramPerimeter;whiteSpace=wrap;rounded=1;arcSize=12;size=0.23;" vertex="1" parent="WIyWlLk6GJQsqaUBKTNV-1">
          <mxGeometry x="195" y="270" width="270" height="60" as="geometry" />
        </mxCell>
      </root>
    </mxGraphModel>
  </diagram>
</mxfile>
